<svg version="1.1" xmlns="http://www.w3.org/2000/svg" viewBox="0 0 604.7867613762376 243.99999999999994" width="604.7867613762376" height="243.99999999999994">
  <!-- svg-source:excalidraw -->
  
  <defs>
    <style class="style-fonts">
      @font-face {
        font-family: "Virgil";
        src: url("https://excalidraw.com/Virgil.woff2");
      }
      @font-face {
        font-family: "Cascadia";
        src: url("https://excalidraw.com/Cascadia.woff2");
      }
      @font-face {
        font-family: "Assistant";
        src: url("https://excalidraw.com/Assistant-Regular.woff2");
      }
    </style>
    
  </defs>
  <g stroke-linecap="round" transform="translate(10.786761376237564 10) rotate(0 95 26.5)"><path d="M13.25 0 C61.93 2.7, 111.7 3.25, 176.75 0 C188.55 -0.53, 191.26 1.5, 190 13.25 C187.92 23.7, 191.68 30.94, 190 39.75 C193.22 49.02, 185.86 54.36, 176.75 53 C136.82 56.38, 103.59 54.41, 13.25 53 C5.01 51.07, -2.98 45.87, 0 39.75 C-2.4 29.43, 2.49 26.96, 0 13.25 C-2.32 4.7, 4.06 -2.94, 13.25 0" stroke="none" stroke-width="0" fill="#f3f0ff"></path><path d="M13.25 0 C68.76 -1.33, 128.22 1.63, 176.75 0 M13.25 0 C48.26 0.23, 83.94 -0.47, 176.75 0 M176.75 0 C185.37 -1.64, 191.44 4.72, 190 13.25 M176.75 0 C185.25 -2.12, 190.28 5.04, 190 13.25 M190 13.25 C191.67 21.77, 188.86 29.19, 190 39.75 M190 13.25 C190.66 21.56, 189.4 32.07, 190 39.75 M190 39.75 C190.7 47.11, 186.65 53.92, 176.75 53 M190 39.75 C188.1 50, 183.7 53.7, 176.75 53 M176.75 53 C119.61 52.62, 64.46 53.95, 13.25 53 M176.75 53 C114.11 53.09, 50.43 52.75, 13.25 53 M13.25 53 C2.98 52.19, -0.67 46.66, 0 39.75 M13.25 53 C3.01 51.07, -0.47 48.46, 0 39.75 M0 39.75 C-1.17 35.19, 0.67 30.03, 0 13.25 M0 39.75 C-0.51 31.17, -0.67 22.75, 0 13.25 M0 13.25 C-1.42 5.34, 5.92 1.25, 13.25 0 M0 13.25 C-0.11 3.52, 4.46 2.28, 13.25 0" stroke="#1e1e1e" stroke-width="2" fill="none"></path></g><g transform="translate(67.78676137623756 17.19999999999999) rotate(0 36.58333206176758 16.099999999999994)"><text x="0" y="25.760546874999996" font-family="Helvetica, Segoe UI Emoji" font-size="28px" fill="#1e1e1e" text-anchor="start" style="white-space: pre;" direction="ltr" dominant-baseline="alphabetic">App 1</text></g><g stroke-linecap="round" transform="translate(404.78676137623756 10.505124041329907) rotate(0 95 26.5)"><path d="M13.25 0 C68.72 -1.61, 119.51 -4, 176.75 0 C186.07 1.62, 191.27 2.12, 190 13.25 C193.41 23.22, 190.47 33.67, 190 39.75 C187.26 50.1, 188.37 49.66, 176.75 53 C123.29 50.35, 65.67 49.57, 13.25 53 C3.44 54.89, -3.5 46.44, 0 39.75 C-2.69 34.35, -0.73 25.44, 0 13.25 C0.63 2.61, 1.22 2.42, 13.25 0" stroke="none" stroke-width="0" fill="#fcc2d7"></path><path d="M13.25 0 C47.88 0.21, 86.03 -1.44, 176.75 0 M13.25 0 C67.61 -0.22, 122.91 0.75, 176.75 0 M176.75 0 C185.3 -1.84, 190.24 4.95, 190 13.25 M176.75 0 C186.13 -1.83, 189.81 6.58, 190 13.25 M190 13.25 C190.72 20.04, 189.56 30.61, 190 39.75 M190 13.25 C190.23 18.47, 190.41 25.61, 190 39.75 M190 39.75 C188.35 49.82, 183.95 53.61, 176.75 53 M190 39.75 C190.91 50.28, 184.87 51.12, 176.75 53 M176.75 53 C128.36 54.58, 75.58 54.99, 13.25 53 M176.75 53 C112.66 53.47, 49.67 52.92, 13.25 53 M13.25 53 C3.19 51.32, -0.41 48.48, 0 39.75 M13.25 53 C2.57 54.18, -0.08 47.39, 0 39.75 M0 39.75 C0.2 30.27, 0.61 19.53, 0 13.25 M0 39.75 C-0.54 32.85, 0.92 25.65, 0 13.25 M0 13.25 C-0.1 3.63, 4.45 1.98, 13.25 0 M0 13.25 C0.18 6.54, 2.9 -1.03, 13.25 0" stroke="#1e1e1e" stroke-width="2" fill="none"></path></g><g transform="translate(461.78676137623756 17.705124041329896) rotate(0 36.58333206176758 16.099999999999994)"><text x="0" y="25.760546874999996" font-family="Helvetica, Segoe UI Emoji" font-size="28px" fill="#1e1e1e" text-anchor="start" style="white-space: pre;" direction="ltr" dominant-baseline="alphabetic">App 3</text></g><g stroke-linecap="round" transform="translate(10 127.5051240413299) rotate(0 292.39338068811867 26.5)"><path d="M13.25 0 C172.68 3.91, 332.22 2.34, 571.54 0 C582.52 1.46, 585.86 7.63, 584.79 13.25 C582.08 23.04, 587.61 26.46, 584.79 39.75 C585.89 48.6, 579.5 53.59, 571.54 53 C433.67 50.72, 295.18 49.11, 13.25 53 C1.34 55.75, 1.67 46.26, 0 39.75 C0.68 29.79, -3.15 25.85, 0 13.25 C-0.39 6.84, 4.53 -2.82, 13.25 0" stroke="none" stroke-width="0" fill="#a5d8ff"></path><path d="M13.25 0 C219.01 0.62, 423.94 0.24, 571.54 0 M13.25 0 C134.89 -0.7, 256.69 -0.23, 571.54 0 M571.54 0 C580.84 -1.59, 584.62 6.3, 584.79 13.25 M571.54 0 C580.3 -1.07, 583.39 5.38, 584.79 13.25 M584.79 13.25 C583.24 18.86, 586.13 26.97, 584.79 39.75 M584.79 13.25 C584.1 19.87, 584.11 25.56, 584.79 39.75 M584.79 39.75 C585.58 50.06, 579.75 51.37, 571.54 53 M584.79 39.75 C584.93 47.11, 582.04 54.97, 571.54 53 M571.54 53 C393.76 53.7, 215.01 53.32, 13.25 53 M571.54 53 C426.45 50.52, 281.76 50.83, 13.25 53 M13.25 53 C2.81 54.03, -0.07 47.55, 0 39.75 M13.25 53 C5.86 53.92, 2.21 48.94, 0 39.75 M0 39.75 C-0.54 30.31, -0.65 22.07, 0 13.25 M0 39.75 C-0.25 30.19, -0.18 22.4, 0 13.25 M0 13.25 C0.15 6.26, 3.1 -0.9, 13.25 0 M0 13.25 C0.49 3.05, 5.26 1.9, 13.25 0" stroke="#1e1e1e" stroke-width="2" fill="none"></path></g><g stroke-linecap="round" transform="translate(11.000000000000114 185.99999999999994) rotate(0 291.4917258601484 24)"><path d="M12 0 C134.84 -2.73, 257.54 -1.22, 570.98 0 C580.06 3.22, 583.42 4.28, 582.98 12 C585.44 16.76, 583.76 28.22, 582.98 36 C582.11 44.59, 577.05 45.02, 570.98 48 C444.08 49.25, 318.74 51.21, 12 48 C5.67 45.68, 0.28 43.64, 0 36 C-3.27 33.18, -0.47 27.94, 0 12 C0.11 1.18, 5.74 0.58, 12 0" stroke="none" stroke-width="0" fill="#d0bfff"></path><path d="M12 0 C171.27 -0.91, 330.47 -0.25, 570.98 0 M12 0 C188.1 2.17, 364.2 1.74, 570.98 0 M570.98 0 C578.81 1.88, 582.93 3.07, 582.98 12 M570.98 0 C577.59 0.96, 581.74 3.63, 582.98 12 M582.98 12 C584.19 21.83, 581.33 31.34, 582.98 36 M582.98 12 C581.97 20.61, 583.18 29.35, 582.98 36 M582.98 36 C582.37 42.37, 579.11 46.72, 570.98 48 M582.98 36 C584.65 45.97, 579.44 46.89, 570.98 48 M570.98 48 C381.33 46.88, 190.49 47.19, 12 48 M570.98 48 C456.91 46.1, 342.69 46.33, 12 48 M12 48 C3.93 46.96, 1.26 44.8, 0 36 M12 48 C6.21 48.35, 0.16 44.83, 0 36 M0 36 C-0.5 28.57, 0.97 25.47, 0 12 M0 36 C0.03 28.3, 0.09 19.53, 0 12 M0 12 C-1.32 3.1, 4.42 -1.19, 12 0 M0 12 C0.84 5.9, 3.66 0.81, 12 0" stroke="#1e1e1e" stroke-width="2" fill="none"></path></g><g transform="translate(132.10839456132038 193.89999999999992) rotate(0 170.38333129882815 16.099999999999994)"><text x="170.38333129882812" y="25.760546874999996" font-family="Helvetica, Segoe UI Emoji" font-size="28px" fill="#1e1e1e" text-anchor="middle" style="white-space: pre;" direction="ltr" dominant-baseline="alphabetic">Sistema Operativo del Host</text></g><g stroke-linecap="round" transform="translate(11.786761376237564 69.30843369727052) rotate(0 95 26.5)"><path d="M13.25 0 C52.96 2.02, 90.97 -0.91, 176.75 0 C186.94 -2.74, 191.52 7.21, 190 13.25 C189.28 19.33, 188.21 21.25, 190 39.75 C187.28 47.61, 187.47 49.5, 176.75 53 C139.13 52.92, 98.44 54.88, 13.25 53 C1.47 53.63, -1.8 45.39, 0 39.75 C0.16 27.21, 1.8 20.87, 0 13.25 C-0.95 7.69, 7.62 2.96, 13.25 0" stroke="none" stroke-width="0" fill="#fff9db"></path><path d="M13.25 0 C60.85 -1.46, 106.01 -0.93, 176.75 0 M13.25 0 C66.61 2.24, 120.11 0.84, 176.75 0 M176.75 0 C184.37 0.84, 188.92 4.1, 190 13.25 M176.75 0 C187.44 -1.73, 188.95 6.01, 190 13.25 M190 13.25 C190.73 20.47, 191.04 29.36, 190 39.75 M190 13.25 C189.8 21.19, 190.17 30.12, 190 39.75 M190 39.75 C191.45 50.29, 185.98 52.04, 176.75 53 M190 39.75 C190.92 50.6, 185.03 54.23, 176.75 53 M176.75 53 C137.53 51.23, 100.47 52.04, 13.25 53 M176.75 53 C128.51 53.32, 80.97 54.24, 13.25 53 M13.25 53 C6.34 53.31, 0.14 49.3, 0 39.75 M13.25 53 C3.28 52.49, -1.5 47.94, 0 39.75 M0 39.75 C1.12 33.58, -0.91 27.64, 0 13.25 M0 39.75 C-0.68 28.73, 0.19 18.01, 0 13.25 M0 13.25 C0.73 6.07, 4.12 0.7, 13.25 0 M0 13.25 C-1.87 4.73, 5.45 0.81, 13.25 0" stroke="#1e1e1e" stroke-width="2" fill="none"></path></g><g transform="translate(27.0975473849349 82.91206246804904) rotate(0 79.45833587646482 11.5)"><text x="0" y="18.400390625" font-family="Helvetica, Segoe UI Emoji" font-size="20px" fill="#1e1e1e" text-anchor="start" style="white-space: pre;" direction="ltr" dominant-baseline="alphabetic">Dependencias/FS</text></g><g stroke-linecap="round" transform="translate(208.78676137623756 69.41842105263157) rotate(0 193 26.081578947368428)"><path d="M13.04 0 C154.04 -2.06, 294.29 1.45, 372.96 0 C378.31 1.1, 386.02 3.48, 386 13.04 C383.03 20.32, 387.64 26.04, 386 39.12 C383.85 44.74, 384.4 53.84, 372.96 52.16 C286.34 52.15, 202.3 49.73, 13.04 52.16 C6.76 51.77, 2.42 47.93, 0 39.12 C-1.18 36.61, 2.98 30.51, 0 13.04 C-0.84 6.59, 4.33 2.92, 13.04 0" stroke="none" stroke-width="0" fill="#96f2d7"></path><path d="M13.04 0 C116.21 0.02, 217.69 -0.39, 372.96 0 M13.04 0 C154.55 1.33, 296.49 0.96, 372.96 0 M372.96 0 C383.26 -1.51, 385.09 5.74, 386 13.04 M372.96 0 C382.45 -1.69, 387.23 5.41, 386 13.04 M386 13.04 C386.77 19.51, 387.64 23.77, 386 39.12 M386 13.04 C386.74 19.59, 386.21 23.95, 386 39.12 M386 39.12 C386.8 49.57, 381.17 53.24, 372.96 52.16 M386 39.12 C384.35 46.88, 380.89 49.95, 372.96 52.16 M372.96 52.16 C286.93 50.67, 201.68 51.65, 13.04 52.16 M372.96 52.16 C284.24 53.18, 194.36 53.31, 13.04 52.16 M13.04 52.16 C3.36 51.72, -1.31 47.26, 0 39.12 M13.04 52.16 C2.72 53.22, 1.73 49.25, 0 39.12 M0 39.12 C2.08 31.58, 1.95 22.41, 0 13.04 M0 39.12 C0.31 33.3, -0.2 26.17, 0 13.04 M0 13.04 C-1.62 4.62, 5.25 0.7, 13.04 0 M0 13.04 C-1.46 5.72, 5.28 0.69, 13.04 0" stroke="#1e1e1e" stroke-width="2" fill="none"></path></g><g transform="translate(287.8005799464453 77.74849986825672) rotate(0 111.26667022705078 16.099999999999994)"><text x="0" y="25.760546874999996" font-family="Helvetica, Segoe UI Emoji" font-size="28px" fill="#1e1e1e" text-anchor="start" style="white-space: pre;" direction="ltr" dominant-baseline="alphabetic">Dependencias/FS</text></g><g transform="translate(195.46591049572862 137.3326695058434) rotate(0 106.5999984741211 16.099999999999994)"><text x="0" y="25.760546874999996" font-family="Helvetica, Segoe UI Emoji" font-size="28px" fill="#1e1e1e" text-anchor="start" style="white-space: pre;" direction="ltr" dominant-baseline="alphabetic">Container engine</text></g><g stroke-linecap="round" transform="translate(206.78676137623756 10.505124041329907) rotate(0 95 26.5)"><path d="M13.25 0 C74.98 -1.77, 137.27 -2.84, 176.75 0 C182.6 -2.72, 189.03 6.31, 190 13.25 C192.46 20.3, 187.39 24.27, 190 39.75 C189.64 45.64, 186.21 51.2, 176.75 53 C144.64 52.79, 104.86 54.42, 13.25 53 C4.99 52.05, 3.27 51.79, 0 39.75 C0.09 32.54, -3.09 16.06, 0 13.25 C-1.3 6.5, 1.56 -1.27, 13.25 0" stroke="none" stroke-width="0" fill="#eebefa"></path><path d="M13.25 0 C59.99 -1.16, 109.43 -1.04, 176.75 0 M13.25 0 C59.25 1.93, 106.5 0.5, 176.75 0 M176.75 0 C186.65 0.92, 188.35 5.65, 190 13.25 M176.75 0 C183.7 0.7, 190.91 6.11, 190 13.25 M190 13.25 C188.51 21.83, 191.49 27.91, 190 39.75 M190 13.25 C189.86 20.46, 189.39 26.19, 190 39.75 M190 39.75 C189.33 46.66, 184.36 51.32, 176.75 53 M190 39.75 C189.53 48.46, 183.73 54.18, 176.75 53 M176.75 53 C129.07 55.95, 80.09 54.17, 13.25 53 M176.75 53 C121.18 52.36, 66.2 53.1, 13.25 53 M13.25 53 C5.92 54.25, -0.1 47.8, 0 39.75 M13.25 53 C4.46 55.28, 0.18 50.71, 0 39.75 M0 39.75 C-1.07 34.28, 1.77 27.05, 0 13.25 M0 39.75 C0.66 31.22, -0.42 22.59, 0 13.25 M0 13.25 C0.81 5.01, 6.2 0.24, 13.25 0 M0 13.25 C0.18 5.28, 2.66 0.97, 13.25 0" stroke="#1e1e1e" stroke-width="2" fill="none"></path></g><g transform="translate(263.78676137623756 17.705124041329896) rotate(0 36.58333206176758 16.099999999999994)"><text x="0" y="25.760546874999996" font-family="Helvetica, Segoe UI Emoji" font-size="28px" fill="#1e1e1e" text-anchor="start" style="white-space: pre;" direction="ltr" dominant-baseline="alphabetic">App 2</text></g></svg>