<svg version="1.1" xmlns="http://www.w3.org/2000/svg" viewBox="0 0 642.8801903128692 400.22002776111395" width="642.8801903128692" height="400.22002776111395">
  <!-- svg-source:excalidraw -->
  
  <defs>
    <style class="style-fonts">
      @font-face {
        font-family: "Virgil";
        src: url("https://excalidraw.com/Virgil.woff2");
      }
      @font-face {
        font-family: "Cascadia";
        src: url("https://excalidraw.com/Cascadia.woff2");
      }
      @font-face {
        font-family: "Assistant";
        src: url("https://excalidraw.com/Assistant-Regular.woff2");
      }
    </style>
    
  </defs>
  <g stroke-linecap="round" transform="translate(20.47808919348563 69.01325165150087) rotate(0 95 26.5)"><path d="M13.25 0 C68.51 0.19, 119.81 -3.16, 176.75 0 C182.54 3.45, 191.71 6.64, 190 13.25 C189.17 23.37, 189.01 34.93, 190 39.75 C190.83 48.24, 185.88 50.32, 176.75 53 C111.99 57.37, 52.12 57.06, 13.25 53 C6.64 56.03, 0.84 46.69, 0 39.75 C-2.86 33.03, 3.36 23.08, 0 13.25 C1.52 5.59, 2.38 -3.38, 13.25 0" stroke="none" stroke-width="0" fill="#f3f0ff"></path><path d="M13.25 0 C73.84 -0.24, 131 0.27, 176.75 0 M13.25 0 C48.91 -0.96, 86.43 -1.51, 176.75 0 M176.75 0 C185.91 -1.07, 188.34 2.91, 190 13.25 M176.75 0 C184.96 1.21, 187.76 3.04, 190 13.25 M190 13.25 C188.91 19.09, 190 22.98, 190 39.75 M190 13.25 C190.54 21.55, 190.54 30.11, 190 39.75 M190 39.75 C188.43 49.55, 185.9 52.47, 176.75 53 M190 39.75 C192.09 50.63, 187.47 52.46, 176.75 53 M176.75 53 C115.71 52.42, 57.51 55.48, 13.25 53 M176.75 53 C140.53 53.33, 104.26 53.05, 13.25 53 M13.25 53 C5.93 52.41, -1.44 47.62, 0 39.75 M13.25 53 C5.68 53.58, 0.58 48.1, 0 39.75 M0 39.75 C-1.76 30.91, -1.52 20.67, 0 13.25 M0 39.75 C0.29 30.8, -0.65 23.11, 0 13.25 M0 13.25 C0.47 3.69, 2.61 -0.47, 13.25 0 M0 13.25 C-2.21 2.65, 2.66 -1.56, 13.25 0" stroke="#1e1e1e" stroke-width="2" fill="none"></path></g><g transform="translate(77.47808919348563 76.21325165150085) rotate(0 36.58333206176758 16.099999999999994)"><text x="0" y="25.760546874999996" font-family="Helvetica, Segoe UI Emoji" font-size="28px" fill="#1e1e1e" text-anchor="start" style="white-space: pre;" direction="ltr" dominant-baseline="alphabetic">App 1</text></g><g stroke-linecap="round" transform="translate(435.47808919348563 69.01325165150087) rotate(0 95 26.5)"><path d="M13.25 0 C60.2 6.02, 114.95 4.78, 176.75 0 C188.24 -0.33, 191.09 3.63, 190 13.25 C190.71 21.01, 190.17 26.79, 190 39.75 C193.15 50.42, 186.91 51.59, 176.75 53 C115.03 58.46, 49.71 53.54, 13.25 53 C5.43 51.05, 0.33 45.47, 0 39.75 C1.11 31.52, -2.45 17.56, 0 13.25 C2.7 6.1, 7.54 2.29, 13.25 0" stroke="none" stroke-width="0" fill="#fcc2d7"></path><path d="M13.25 0 C62.77 0.23, 116.88 -2.47, 176.75 0 M13.25 0 C67.47 -0.14, 120.52 -0.36, 176.75 0 M176.75 0 C185.04 1.05, 188.05 3.22, 190 13.25 M176.75 0 C183.61 1.75, 191.07 2.93, 190 13.25 M190 13.25 C190.32 20.4, 188.2 30.9, 190 39.75 M190 13.25 C189.4 21.4, 190.34 28.31, 190 39.75 M190 39.75 C191.82 50.36, 187.23 52.53, 176.75 53 M190 39.75 C191.44 48.57, 187.45 50.95, 176.75 53 M176.75 53 C141.72 53.24, 109.09 53.71, 13.25 53 M176.75 53 C112.82 53.81, 46.66 53.62, 13.25 53 M13.25 53 C5.52 53.5, 0.5 48.16, 0 39.75 M13.25 53 C6.5 52.66, -1.68 46.52, 0 39.75 M0 39.75 C0.23 28.47, -0.78 20.07, 0 13.25 M0 39.75 C0.46 33.99, -0.68 28.72, 0 13.25 M0 13.25 C-1.92 2.88, 2.89 -1.36, 13.25 0 M0 13.25 C0.38 4.86, 4.43 2.24, 13.25 0" stroke="#1e1e1e" stroke-width="2" fill="none"></path></g><g transform="translate(492.47808919348563 76.21325165150085) rotate(0 36.58333206176758 16.099999999999994)"><text x="0" y="25.760546874999996" font-family="Helvetica, Segoe UI Emoji" font-size="28px" fill="#1e1e1e" text-anchor="start" style="white-space: pre;" direction="ltr" dominant-baseline="alphabetic">App 3</text></g><g stroke-linecap="round" transform="translate(10 278.01325165150075) rotate(0 311.4400951564346 26.5)"><path d="M13.25 0 C250.41 -2.78, 485.89 -2.96, 609.63 0 C618.68 -0.95, 624.74 5.25, 622.88 13.25 C626.07 22.79, 624.25 27.23, 622.88 39.75 C626.16 50.64, 621.44 55.22, 609.63 53 C381 49.97, 151.7 49.5, 13.25 53 C6.4 56.1, 0.72 50.1, 0 39.75 C2.97 32.61, 3.39 24.41, 0 13.25 C-2.41 7.22, 1.33 -2.41, 13.25 0" stroke="none" stroke-width="0" fill="#a5d8ff"></path><path d="M13.25 0 C217.58 2.22, 421.23 2.34, 609.63 0 M13.25 0 C160 2.01, 306.58 1.56, 609.63 0 M609.63 0 C616.75 1.53, 623.81 3.13, 622.88 13.25 M609.63 0 C618.64 -0.23, 621 4.82, 622.88 13.25 M622.88 13.25 C622.43 21.22, 622.71 24.93, 622.88 39.75 M622.88 13.25 C623.83 23.37, 623.74 31.49, 622.88 39.75 M622.88 39.75 C624.13 48.57, 620.08 51.22, 609.63 53 M622.88 39.75 C620.69 47.76, 619.8 51.18, 609.63 53 M609.63 53 C452.48 52.48, 294.34 53.32, 13.25 53 M609.63 53 C448.61 51.95, 287.25 51.76, 13.25 53 M13.25 53 C6.22 52.71, -1.46 46.79, 0 39.75 M13.25 53 C6.15 51.2, 1.85 48.61, 0 39.75 M0 39.75 C-1.8 31.91, -1.2 27.86, 0 13.25 M0 39.75 C-0.72 32, -0.52 25.1, 0 13.25 M0 13.25 C0.33 4.81, 4.43 1.95, 13.25 0 M0 13.25 C0.13 6.37, 2.41 -1.94, 13.25 0" stroke="#1e1e1e" stroke-width="2" fill="none"></path></g><g stroke-linecap="round" transform="translate(12.479803280477483 341.17318607832675) rotate(0 309.57338461999586 24.5234208413936)"><path d="M12.26 0 C227.73 0.08, 442.41 0.02, 606.89 0 C616.92 0.83, 618.8 4.38, 619.15 12.26 C620.86 16.38, 622.81 25.38, 619.15 36.79 C622.12 47.18, 618.08 49.88, 606.89 49.05 C459.85 45.49, 313.34 47.97, 12.26 49.05 C4.8 50.57, 1.17 42.92, 0 36.79 C2.79 34.02, -2.74 29.49, 0 12.26 C-3.08 1.68, 4.7 -3.5, 12.26 0" stroke="none" stroke-width="0" fill="#d0bfff"></path><path d="M12.26 0 C135.28 0.12, 258.26 -0.67, 606.89 0 M12.26 0 C145.38 -1.49, 278.93 -0.94, 606.89 0 M606.89 0 C615.99 -1.29, 619.3 3.89, 619.15 12.26 M606.89 0 C613.18 0.4, 617.99 2.05, 619.15 12.26 M619.15 12.26 C619.18 19.7, 620.09 30.59, 619.15 36.79 M619.15 12.26 C620.19 18.74, 619.99 25.68, 619.15 36.79 M619.15 36.79 C620.77 43.18, 613.15 48.33, 606.89 49.05 M619.15 36.79 C620.48 43.14, 614.25 48.17, 606.89 49.05 M606.89 49.05 C436.21 48.95, 264.22 47.77, 12.26 49.05 M606.89 49.05 C457.34 49.56, 307.96 49.59, 12.26 49.05 M12.26 49.05 C2.63 47.25, 1.51 43.4, 0 36.79 M12.26 49.05 C5.94 49.08, -1.53 43.83, 0 36.79 M0 36.79 C-1.1 29.63, -0.49 19.73, 0 12.26 M0 36.79 C-0.53 29.33, 0.4 23.42, 0 12.26 M0 12.26 C0.01 6.04, 4.2 1.7, 12.26 0 M0 12.26 C-2 2.14, 6.29 1.09, 12.26 0" stroke="#1e1e1e" stroke-width="2" fill="none"></path></g><g transform="translate(151.66985660164522 349.5966069197204) rotate(0 170.38333129882812 16.099999999999994)"><text x="170.38333129882812" y="25.760546874999996" font-family="Helvetica, Segoe UI Emoji" font-size="28px" fill="#1e1e1e" text-anchor="middle" style="white-space: pre;" direction="ltr" dominant-baseline="alphabetic">Sistema Operativo del Host</text></g><g stroke-linecap="round" transform="translate(20.47808919348563 128.4896382151155) rotate(0 95 26.5)"><path d="M13.25 0 C60.58 1.61, 103.84 1.07, 176.75 0 C182.9 3.15, 191.84 5.75, 190 13.25 C193.41 22.38, 193.46 27.9, 190 39.75 C188.11 49.59, 183.64 53.33, 176.75 53 C142.56 57.05, 108.12 53.5, 13.25 53 C1.04 55.7, 1.68 51.71, 0 39.75 C-2.77 27.71, 0.93 16.99, 0 13.25 C-1.65 0.87, 1.07 -0.25, 13.25 0" stroke="none" stroke-width="0" fill="#fff9db"></path><path d="M13.25 0 C63.47 0.81, 117.76 -0.59, 176.75 0 M13.25 0 C53.01 -1.89, 91.92 -1.35, 176.75 0 M176.75 0 C183.95 0.35, 189 2.64, 190 13.25 M176.75 0 C187.13 -0.25, 191.55 4.49, 190 13.25 M190 13.25 C189.6 20.94, 191.91 26.65, 190 39.75 M190 13.25 C190.98 19.69, 189.21 27.55, 190 39.75 M190 39.75 C191.16 47, 184.88 52.24, 176.75 53 M190 39.75 C189.72 50.78, 184.9 54.56, 176.75 53 M176.75 53 C114.39 52.93, 54.46 52.33, 13.25 53 M176.75 53 C130.42 51.86, 86.29 51.98, 13.25 53 M13.25 53 C6.03 53.03, -1.33 47.6, 0 39.75 M13.25 53 C4.67 50.78, -1.9 47.05, 0 39.75 M0 39.75 C-0.37 29.25, -1.44 21.07, 0 13.25 M0 39.75 C-0.04 34.57, 0.01 28.3, 0 13.25 M0 13.25 C-1.74 2.73, 6.33 0.95, 13.25 0 M0 13.25 C1.42 6.12, 4.2 0.7, 13.25 0" stroke="#1e1e1e" stroke-width="2" fill="none"></path></g><g stroke-linecap="round" transform="translate(229.07788540130304 127.14094805923017) rotate(0 95 26.5)"><path d="M13.25 0 C52.12 -2.83, 88.21 -5.26, 176.75 0 C183.9 1.85, 193.18 3.71, 190 13.25 C187.97 23.61, 191.71 34.19, 190 39.75 C186.89 45.33, 182.1 56.01, 176.75 53 C115.33 53.34, 58.83 50.56, 13.25 53 C3.24 50.55, 0.23 50.23, 0 39.75 C0.51 28.42, -3.08 19.9, 0 13.25 C0.64 4.4, 6.63 -2.83, 13.25 0" stroke="none" stroke-width="0" fill="#ffec99"></path><path d="M13.25 0 C50.7 1.96, 89.92 -0.55, 176.75 0 M13.25 0 C65.94 2.29, 118.94 1.76, 176.75 0 M176.75 0 C187.58 -1.22, 191.31 5.01, 190 13.25 M176.75 0 C183.84 -1.04, 190.84 3.22, 190 13.25 M190 13.25 C190.76 20.15, 190.15 25.97, 190 39.75 M190 13.25 C190.43 20.25, 189.77 28.8, 190 39.75 M190 39.75 C189.29 49.17, 186.42 53.86, 176.75 53 M190 39.75 C191.21 49.5, 187.59 54.27, 176.75 53 M176.75 53 C126.27 52.51, 72.38 54.07, 13.25 53 M176.75 53 C130.28 52.64, 83.84 53.46, 13.25 53 M13.25 53 C2.82 54.86, 1.92 47.53, 0 39.75 M13.25 53 C3.02 54.95, 1.9 46.93, 0 39.75 M0 39.75 C-0.06 31.47, -1.57 25.55, 0 13.25 M0 39.75 C-0.08 34.45, 0.2 27.31, 0 13.25 M0 13.25 C0.41 5.14, 4.34 0.32, 13.25 0 M0 13.25 C0.09 4.21, 5.15 -0.89, 13.25 0" stroke="#1e1e1e" stroke-width="2" fill="none"></path></g><g stroke-linecap="round" transform="translate(435.6704370789288 128.6345042312688) rotate(0 95 26.5)"><path d="M13.25 0 C48.34 -1.88, 87.69 0.08, 176.75 0 C189.16 -0.7, 189.37 2.41, 190 13.25 C186.37 21.52, 188.54 27.68, 190 39.75 C187.76 48.33, 183.78 54.35, 176.75 53 C130 48.79, 93.02 53.13, 13.25 53 C6.29 50.19, -2.36 46.53, 0 39.75 C1.4 27.42, 1.37 21.76, 0 13.25 C-3.57 3.22, 4.65 0.5, 13.25 0" stroke="none" stroke-width="0" fill="#ffd43b"></path><path d="M13.25 0 C68.53 0.41, 120.52 -2.16, 176.75 0 M13.25 0 C49.57 1.05, 84.58 0.67, 176.75 0 M176.75 0 C184.01 0.52, 188.98 4.96, 190 13.25 M176.75 0 C186.14 -1.34, 191.77 3.46, 190 13.25 M190 13.25 C191.02 20.08, 189.5 25.42, 190 39.75 M190 13.25 C189.96 23.04, 189.1 31.99, 190 39.75 M190 39.75 C188.9 47.1, 187.52 54.65, 176.75 53 M190 39.75 C191.36 47.51, 184.27 54.8, 176.75 53 M176.75 53 C131.03 54.67, 84.42 53.11, 13.25 53 M176.75 53 C120.28 50.52, 62.44 52.25, 13.25 53 M13.25 53 C5 51.9, -0.03 48.43, 0 39.75 M13.25 53 C4.1 51.97, 2.2 46.55, 0 39.75 M0 39.75 C-0.97 30.75, 1.59 23.37, 0 13.25 M0 39.75 C1.04 29, 0.16 20.39, 0 13.25 M0 13.25 C1.24 3.01, 2.59 -1.61, 13.25 0 M0 13.25 C-0.88 6.46, 2.8 0.96, 13.25 0" stroke="#1e1e1e" stroke-width="2" fill="none"></path></g><g transform="translate(35.43124751069843 143.59614744453287) rotate(0 79.45833587646484 11.5)"><text x="0" y="18.400390625" font-family="Helvetica, Segoe UI Emoji" font-size="20px" fill="#1e1e1e" text-anchor="start" style="white-space: pre;" direction="ltr" dominant-baseline="alphabetic">Dependencias/FS</text></g><g transform="translate(237.0380908833895 143.80614744453288) rotate(0 78.5 11.318421052631578)"><text x="0" y="18.10985814144736" font-family="Helvetica, Segoe UI Emoji" font-size="19.684210526315788px" fill="#1e1e1e" text-anchor="start" style="white-space: pre;" direction="ltr" dominant-baseline="alphabetic">Dependencias/FS</text></g><g transform="translate(451.84256182150625 145.51693501707524) rotate(0 78.5 11.318421052631578)"><text x="0" y="18.10985814144736" font-family="Helvetica, Segoe UI Emoji" font-size="19.684210526315788px" fill="#1e1e1e" text-anchor="start" style="white-space: pre;" direction="ltr" dominant-baseline="alphabetic">Dependencias/FS</text></g><g stroke-linecap="round" transform="translate(19.916092165714474 185.85270641096292) rotate(0 95.34348708589064 37.58198411055824)"><path d="M18.79 0 C80.89 0.75, 139.38 -4.17, 171.9 0 C185.43 -1.95, 191.01 3.15, 190.69 18.79 C192.79 33.31, 189.23 42.09, 190.69 56.37 C193.39 70.58, 187.55 77.45, 171.9 75.16 C133.8 73.41, 97.02 71.15, 18.79 75.16 C2.72 71.82, -0.25 67.61, 0 56.37 C0.71 45.32, -3.1 31.33, 0 18.79 C2.65 4.19, 6.76 3.57, 18.79 0" stroke="none" stroke-width="0" fill="#fcc2d7"></path><path d="M18.79 0 C66.27 0.25, 111.27 2.59, 171.9 0 M18.79 0 C62.27 0.44, 107.48 -0.31, 171.9 0 M171.9 0 C186.24 1.78, 192.33 5.8, 190.69 18.79 M171.9 0 C185.86 -0.01, 192.55 4.22, 190.69 18.79 M190.69 18.79 C188.97 25.78, 189.79 33.93, 190.69 56.37 M190.69 18.79 C191.33 33.36, 189.86 48.04, 190.69 56.37 M190.69 56.37 C191.79 69.4, 184.92 74.74, 171.9 75.16 M190.69 56.37 C192.77 68.56, 182.75 73.1, 171.9 75.16 M171.9 75.16 C114.45 75.06, 55.97 76.61, 18.79 75.16 M171.9 75.16 C140.96 73.78, 108.65 73.91, 18.79 75.16 M18.79 75.16 C4.34 73.63, -1.53 67.54, 0 56.37 M18.79 75.16 C6.64 75.61, 0.02 71.14, 0 56.37 M0 56.37 C-2.01 46.8, 0.63 34.62, 0 18.79 M0 56.37 C-0.18 42.38, -0.23 28.79, 0 18.79 M0 18.79 C0.46 6.07, 6.43 -1.49, 18.79 0 M0 18.79 C2.01 7.44, 7.11 -0.9, 18.79 0" stroke="#1e1e1e" stroke-width="2" fill="none"></path></g><g stroke-linecap="round" transform="translate(230.24315374828086 186.73845026952313) rotate(0 94.50666588246655 37)"><path d="M18.5 0 C77.5 -4.19, 135.85 -4.25, 170.51 0 C183.17 -3.11, 190.99 9.27, 189.01 18.5 C187.26 26.95, 192 43.85, 189.01 55.5 C192.14 70.12, 180.44 76.81, 170.51 74 C134.44 72.81, 101.81 71.11, 18.5 74 C5.91 72.71, 0.01 70.11, 0 55.5 C-2.88 41.37, 2.44 30.12, 0 18.5 C0.5 9.73, 3.9 -0.87, 18.5 0" stroke="none" stroke-width="0" fill="#f783ac"></path><path d="M18.5 0 C49.91 2.1, 84.65 2.11, 170.51 0 M18.5 0 C64.73 -1, 111.54 0.15, 170.51 0 M170.51 0 C184.49 -0.47, 190.26 6.16, 189.01 18.5 M170.51 0 C184.71 -2.05, 186.82 5.34, 189.01 18.5 M189.01 18.5 C187.96 31.5, 190.63 44.4, 189.01 55.5 M189.01 18.5 C188.57 31.62, 189.84 45.96, 189.01 55.5 M189.01 55.5 C189.51 67.41, 184.65 73.71, 170.51 74 M189.01 55.5 C187.34 65.77, 184.58 72.2, 170.51 74 M170.51 74 C111.69 73.2, 52.91 71.33, 18.5 74 M170.51 74 C134.13 73.21, 98.59 72.68, 18.5 74 M18.5 74 C4.64 72.64, 0.33 68.22, 0 55.5 M18.5 74 C6.18 76.24, 0.13 69.79, 0 55.5 M0 55.5 C1.26 48.86, 1.79 39.56, 0 18.5 M0 55.5 C-0.18 43.79, 0.31 30.96, 0 18.5 M0 18.5 C0.16 4.68, 7.92 1.02, 18.5 0 M0 18.5 C0.85 5.26, 8.26 1.32, 18.5 0" stroke="#1e1e1e" stroke-width="2" fill="none"></path></g><g stroke-linecap="round" transform="translate(436.0629948538631 187.63865198476006) rotate(0 94.91509433962266 37.000000000000014)"><path d="M18.5 0 C78.2 -0.5, 136.21 -1.67, 171.33 0 C185.64 3.1, 190.55 7.69, 189.83 18.5 C192.16 32.49, 192.58 45.4, 189.83 55.5 C187.42 70.64, 180.58 71.59, 171.33 74 C119.35 69.39, 74.2 71.45, 18.5 74 C6.18 76.28, 0.54 68.97, 0 55.5 C3.15 42.09, 0.99 36.39, 0 18.5 C-2.26 5.29, 7.12 -1.03, 18.5 0" stroke="none" stroke-width="0" fill="#e64980"></path><path d="M18.5 0 C56.48 0.32, 94.95 -2.59, 171.33 0 M18.5 0 C72.66 1.29, 125.83 0.17, 171.33 0 M171.33 0 C184.91 -0.01, 191.45 4.39, 189.83 18.5 M171.33 0 C181.47 -0.83, 191.16 4.34, 189.83 18.5 M189.83 18.5 C191.6 27.7, 191.04 39.6, 189.83 55.5 M189.83 18.5 C190.11 28.75, 189.81 38.3, 189.83 55.5 M189.83 55.5 C191.64 67.54, 182.21 72.2, 171.33 74 M189.83 55.5 C191.56 66.04, 185.51 74.03, 171.33 74 M171.33 74 C133.75 72.51, 98.69 74.64, 18.5 74 M171.33 74 C130.09 72.87, 90 72.96, 18.5 74 M18.5 74 C6.5 74.39, 0.01 69.78, 0 55.5 M18.5 74 C6.3 75.95, -2 65.89, 0 55.5 M0 55.5 C1.3 40.67, 0.43 25.77, 0 18.5 M0 55.5 C0.33 44.08, 0.18 32.11, 0 18.5 M0 18.5 C1.75 7.19, 6.91 -0.79, 18.5 0 M0 18.5 C2.09 7.48, 8.07 1.42, 18.5 0" stroke="#1e1e1e" stroke-width="2" fill="none"></path></g><g transform="translate(33.117629856246594 210.5277717128049) rotate(0 79.14167022705078 11.06603773584905)"><text x="0" y="17.70603626179245" font-family="Helvetica, Segoe UI Emoji" font-size="19.245283018867923px" fill="#1e1e1e" text-anchor="start" style="white-space: pre;" direction="ltr" dominant-baseline="alphabetic">Sistema Operativo</text></g><g transform="translate(242.817170381059 213.32099560319182) rotate(0 79.14167022705078 11.06603773584905)"><text x="79.14167022705078" y="17.70603626179245" font-family="Helvetica, Segoe UI Emoji" font-size="19.245283018867923px" fill="#1e1e1e" text-anchor="middle" style="white-space: pre;" direction="ltr" dominant-baseline="alphabetic">Sistema Operativo</text></g><g transform="translate(448.211313221821 211.00435087141133) rotate(0 79.14167022705078 11.06603773584905)"><text x="79.14167022705078" y="17.70603626179245" font-family="Helvetica, Segoe UI Emoji" font-size="19.245283018867923px" fill="#1e1e1e" text-anchor="middle" style="white-space: pre;" direction="ltr" dominant-baseline="alphabetic">Sistema Operativo</text></g><g transform="translate(261.47808919348563 288.21325165150085) rotate(0 62.99166488647461 16.099999999999994)"><text x="0" y="25.760546874999996" font-family="Helvetica, Segoe UI Emoji" font-size="28px" fill="#1e1e1e" text-anchor="start" style="white-space: pre;" direction="ltr" dominant-baseline="alphabetic">Hipervisor</text></g><g stroke-linecap="round" transform="translate(228.47808919348563 69.01325165150087) rotate(0 95 26.5)"><path d="M13.25 0 C65.82 4.37, 126.84 4.79, 176.75 0 C187.87 -2.41, 192.81 1.33, 190 13.25 C188.43 15.88, 186.73 25.35, 190 39.75 C188.71 48.59, 187.86 53.54, 176.75 53 C120.06 53.47, 66.24 51.32, 13.25 53 C7.98 50.74, -0.87 49.54, 0 39.75 C-2.53 32.43, -1.77 22.91, 0 13.25 C-2.84 1.44, 3.31 0.59, 13.25 0" stroke="none" stroke-width="0" fill="#eebefa"></path><path d="M13.25 0 C76.68 -0.09, 141.03 0.28, 176.75 0 M13.25 0 C48.32 -0.2, 81.88 0.21, 176.75 0 M176.75 0 C185.34 1.91, 189.41 5.77, 190 13.25 M176.75 0 C187.32 -0.68, 188.35 3.3, 190 13.25 M190 13.25 C189.65 24.47, 189.77 30.61, 190 39.75 M190 13.25 C191 18.83, 189.53 23.9, 190 39.75 M190 39.75 C190.22 46.66, 183.93 51.67, 176.75 53 M190 39.75 C190.54 47.75, 183.51 52.46, 176.75 53 M176.75 53 C142.05 52.08, 110.44 51.77, 13.25 53 M176.75 53 C110.88 53.54, 47.7 54.87, 13.25 53 M13.25 53 C5.65 54.48, -0.19 49.19, 0 39.75 M13.25 53 C3.91 53.14, -0.6 49.77, 0 39.75 M0 39.75 C-1.46 32.93, 1.05 23.36, 0 13.25 M0 39.75 C0.59 33.46, 0.6 26.16, 0 13.25 M0 13.25 C-1.05 4.98, 3.34 0.18, 13.25 0 M0 13.25 C-1.99 5.68, 6.4 0.46, 13.25 0" stroke="#1e1e1e" stroke-width="2" fill="none"></path></g><g transform="translate(285.47808919348563 76.21325165150085) rotate(0 36.58333206176758 16.099999999999994)"><text x="0" y="25.760546874999996" font-family="Helvetica, Segoe UI Emoji" font-size="28px" fill="#1e1e1e" text-anchor="start" style="white-space: pre;" direction="ltr" dominant-baseline="alphabetic">App 2</text></g><g stroke-linecap="round" transform="translate(11.080975640492113 41.13552219226173) rotate(0 103.78274542672594 115.24711846805029)"><path d="M32 0 C67.28 1.31, 103.17 1.85, 175.57 0 M175.57 0 C198.63 1.26, 207.29 10.37, 207.57 32 M207.57 32 C206.33 69.77, 205.82 109.46, 207.57 198.49 M207.57 198.49 C207.34 220.99, 195.65 229.66, 175.57 230.49 M175.57 230.49 C141.52 233.12, 106.13 232.19, 32 230.49 M32 230.49 C9.97 231.14, -0.79 221.24, 0 198.49 M0 198.49 C-0.89 151.13, 0.06 100.01, 0 32 M0 32 C-1.19 12.27, 11.23 -0.4, 32 0" stroke="#2f9e44" stroke-width="2.5" fill="none" stroke-dasharray="8 10"></path></g><g stroke-linecap="round" transform="translate(223.6125859458785 45.10164164419621) rotate(0 100.16241709788667 112.23017819401755)"><path d="M32 0 C60.96 0.64, 88.71 -1.4, 168.32 0 M168.32 0 C191.41 -1.9, 202.21 9.68, 200.32 32 M200.32 32 C201.47 75.51, 202.64 115.18, 200.32 192.46 M200.32 192.46 C199.14 214.46, 188.39 225.7, 168.32 224.46 M168.32 224.46 C119.63 224.43, 67.24 225.22, 32 224.46 M32 224.46 C12.03 224.93, 0.98 213.26, 0 192.46 M0 192.46 C1.16 153.11, 0.47 111.47, 0 32 M0 32 C-2 11.78, 9.13 1.55, 32 0" stroke="#1971c2" stroke-width="2.5" fill="none" stroke-dasharray="8 10"></path></g><g stroke-linecap="round" transform="translate(431.7306440320387 46.65420887690462) rotate(0 100.16241709788667 111.02340208440445)"><path d="M32 0 C69.22 0.18, 107.99 -0.82, 168.32 0 M168.32 0 C189.57 1.1, 199.55 9.49, 200.32 32 M200.32 32 C200.68 95.23, 203.13 157.54, 200.32 190.05 M200.32 190.05 C199.93 209.66, 190.64 221.41, 168.32 222.05 M168.32 222.05 C125.29 220.82, 85.51 221.9, 32 222.05 M32 222.05 C8.97 220.29, 0.21 212.59, 0 190.05 M0 190.05 C1.93 148.7, -1.18 105.28, 0 32 M0 32 C1.85 8.95, 9.02 -0.08, 32 0" stroke="#e03131" stroke-width="2.5" fill="none" stroke-dasharray="8 10"></path></g><g transform="translate(82.46005991367178 10) rotate(0 28.78333282470703 16.099999999999998)"><text x="28.78333282470703" y="25.760546874999996" font-family="Helvetica, Segoe UI Emoji" font-size="28px" fill="#1e1e1e" text-anchor="middle" style="white-space: pre;" direction="ltr" dominant-baseline="alphabetic">VM1</text></g><g transform="translate(291.578117999832 10.345791123095267) rotate(0 28.78333282470703 16.099999999999998)"><text x="28.78333282470703" y="25.760546874999996" font-family="Helvetica, Segoe UI Emoji" font-size="28px" fill="#1e1e1e" text-anchor="middle" style="white-space: pre;" direction="ltr" dominant-baseline="alphabetic">VM2</text></g><g transform="translate(500.6961760859921 10.105134465416711) rotate(0 28.78333282470703 16.099999999999998)"><text x="28.78333282470703" y="25.760546874999996" font-family="Helvetica, Segoe UI Emoji" font-size="28px" fill="#1e1e1e" text-anchor="middle" style="white-space: pre;" direction="ltr" dominant-baseline="alphabetic">VM3</text></g></svg>